<svg xmlns="http://www.w3.org/2000/svg" id="Layer_2" data-name="Layer 2" viewBox="0 0 134.05 24.86"><defs><style>      .cls-1 {        fill: #555960;      }      .cls-1, .cls-2 {        stroke-width: 0px;      }      .cls-2 {        fill: #e3530f;      }    </style></defs><g id="Layer_1-2" data-name="Layer 1"><g><polygon class="cls-1" points="27.2 8.56 30.12 8.56 34.13 21.2 34.17 21.2 38.27 8.56 41.11 8.56 35.65 24.53 32.54 24.53 27.2 8.56"></polygon><path class="cls-1" d="M48.34,17.74c-.03-.4-.12-.79-.26-1.16-.14-.37-.34-.7-.59-.98-.24-.28-.54-.5-.89-.67s-.74-.26-1.17-.26c-.45,0-.85.07-1.22.23-.36.16-.68.37-.94.65-.27.28-.47.6-.63.98-.16.37-.24.78-.26,1.21h5.95ZM42.38,19.42c0,.45.06.88.19,1.3.13.41.32.79.57,1.1.26.31.57.56.96.74.38.19.85.28,1.38.28.74,0,1.35-.16,1.8-.48.46-.32.8-.8,1.02-1.45h2.41c-.14.63-.36,1.19-.69,1.68-.33.49-.72.9-1.19,1.24-.46.34-.98.59-1.55.77-.57.17-1.17.26-1.8.26-.91,0-1.71-.15-2.41-.45-.7-.3-1.3-.71-1.78-1.26-.49-.54-.85-1.18-1.1-1.93-.24-.74-.37-1.56-.37-2.46,0-.82.13-1.6.39-2.34.27-.73.64-1.38,1.12-1.95.49-.56,1.07-1,1.76-1.33.69-.33,1.46-.49,2.33-.49s1.72.19,2.45.57,1.32.88,1.8,1.51c.48.63.82,1.35,1.04,2.16.21.81.28,1.65.17,2.52h-8.5Z"></path><path class="cls-1" d="M52,12.97h2.41v1.7l.04.04c.38-.64.89-1.15,1.52-1.51.63-.36,1.32-.55,2.09-.55,1.27,0,2.27.33,3,.99.73.66,1.1,1.64,1.1,2.96v7.95h-2.55v-7.28c-.03-.91-.22-1.57-.59-1.98-.36-.41-.91-.62-1.68-.62-.44,0-.82.07-1.16.23-.34.16-.64.37-.87.65-.23.28-.43.6-.56.98-.14.37-.2.77-.2,1.19v6.83h-2.55v-11.58h.01Z"></path><path class="cls-1" d="M65.81,20.82c.07.74.36,1.27.85,1.56.49.3,1.09.45,1.77.45.23,0,.51-.02.82-.05s.6-.11.86-.21c.27-.11.49-.26.66-.46.17-.2.24-.47.23-.8-.01-.33-.14-.6-.36-.81-.22-.21-.51-.37-.86-.5-.35-.13-.74-.23-1.2-.33-.45-.09-.9-.19-1.36-.29-.48-.11-.94-.23-1.37-.38-.44-.15-.84-.35-1.19-.61-.35-.26-.63-.57-.84-.98-.21-.39-.31-.88-.31-1.47,0-.63.15-1.15.46-1.57.31-.43.69-.77,1.16-1.03.47-.27.99-.45,1.56-.55.57-.11,1.13-.16,1.65-.16.6,0,1.17.06,1.71.19.54.13,1.03.33,1.48.62.44.29.81.65,1.1,1.11.29.46.47,1,.55,1.65h-2.66c-.12-.61-.4-1.02-.84-1.23-.44-.21-.95-.31-1.51-.31-.18,0-.39.01-.64.04-.24.03-.48.09-.69.17-.21.09-.4.2-.55.36-.15.16-.22.36-.22.62,0,.31.11.56.32.77.21.19.5.35.85.48.35.13.74.23,1.2.32.45.09.91.19,1.38.29.46.11.91.23,1.36.38s.85.35,1.2.61c.35.26.64.57.85.96.21.39.33.86.33,1.44,0,.69-.16,1.27-.47,1.74-.31.48-.72.86-1.22,1.16-.5.3-1.05.51-1.67.65-.62.14-1.21.2-1.81.2-.73,0-1.4-.09-2.02-.24-.62-.16-1.16-.41-1.61-.74-.46-.34-.81-.76-1.07-1.26-.27-.5-.4-1.1-.41-1.78h2.54Z"></path><path class="cls-1" d="M84.71,24.54h-2.51v-1.61h-.04c-.31.59-.78,1.05-1.39,1.4s-1.26.52-1.89.52c-1.52,0-2.63-.37-3.3-1.13-.68-.76-1.02-1.89-1.02-3.41v-7.34h2.55v7.1c0,1.01.19,1.73.59,2.15.38.41.94.63,1.64.63.53,0,.99-.09,1.34-.24.36-.16.65-.38.87-.66.22-.28.38-.61.48-1,.1-.38.15-.81.15-1.26v-6.71h2.55v11.56h-.01Z"></path><path class="cls-1" d="M86.45,12.97h2.39v2.23h.04c.07-.31.22-.62.44-.91.21-.3.48-.57.79-.82.31-.24.65-.45,1.02-.6s.76-.22,1.14-.22c.3,0,.5.01.62.02.12.01.22.03.35.04v2.46c-.18-.03-.36-.05-.55-.07-.19-.02-.37-.03-.55-.03-.44,0-.84.09-1.22.26s-.71.43-1,.77c-.29.34-.51.74-.67,1.24-.16.49-.24,1.06-.24,1.7v5.51h-2.55v-11.57h.01Z"></path><path class="cls-1" d="M101.5,17.74c-.03-.4-.12-.79-.26-1.16-.14-.37-.34-.7-.59-.98-.24-.28-.54-.5-.89-.67s-.74-.26-1.17-.26c-.45,0-.85.07-1.22.23-.36.16-.68.37-.94.65-.27.28-.47.6-.63.98-.16.37-.24.78-.26,1.21h5.95ZM95.54,19.42c0,.45.06.88.19,1.3.13.41.32.79.57,1.1.26.31.57.56.96.74.38.19.85.28,1.38.28.74,0,1.35-.16,1.8-.48.46-.32.8-.8,1.02-1.45h2.41c-.14.63-.36,1.19-.69,1.68-.33.49-.72.9-1.19,1.24-.46.34-.98.59-1.55.77-.57.17-1.17.26-1.8.26-.91,0-1.71-.15-2.41-.45-.7-.3-1.3-.71-1.78-1.26-.49-.54-.85-1.18-1.1-1.93-.24-.74-.37-1.56-.37-2.46,0-.82.13-1.6.39-2.34.27-.73.64-1.38,1.12-1.95.49-.56,1.07-1,1.76-1.33.69-.33,1.46-.49,2.33-.49s1.72.19,2.45.57,1.32.88,1.8,1.51c.48.63.82,1.35,1.04,2.16.21.81.28,1.65.17,2.52h-8.5Z"></path><polygon class="cls-2" points="105.42 8.56 108.93 8.56 108.93 14.68 115.4 14.68 115.4 8.56 118.91 8.56 118.91 24.53 115.4 24.53 115.4 17.64 108.93 17.64 108.93 24.53 105.42 24.53 105.42 8.56"></polygon><path class="cls-2" d="M123.81,15.79h3.85c1.56,0,2.41-.67,2.41-2.29s-.85-2.21-2.41-2.21h-3.85v4.5h0ZM120.29,8.56h8.62c2.86,0,4.68,1.99,4.68,4.4,0,1.88-.77,3.29-2.53,4.01v.04c1.72.45,2.21,2.13,2.33,3.73.06,1.01.04,2.88.67,3.79h-3.51c-.43-1.01-.38-2.55-.56-3.83-.24-1.68-.89-2.41-2.66-2.41h-3.51v6.24h-3.51v-15.98h-.01Z"></path><path class="cls-1" d="M20.06,10.57c.55-1.71.87-3.45.87-5.14,0-1.45-.22-2.64-.22-2.64,0,2.3-.64,4.64-1.68,6.85C14.66,5.86,8.97,3.06,4.57,3.58c3.96.4,9.66,3.83,13.48,7.9-3.19,5.39-8.61,9.6-12.47,9.6s-5.58-3.73-5.58-3.73c0,0,.22,7.3,5.5,7.3,4.83,0,10.8-5.45,13.69-11.84,1.78,2.19,2.93,4.5,2.93,6.57,0,4.22-6.29,4.79-6.29,4.79,0,0,9.94,2.52,9.94-3.83.01-2.94-2.35-6.61-5.7-9.77"></path><path class="cls-2" d="M19.12,1.95c.11,1.24-1.53,2.4-3.66,2.6-2.13.18-3.94-.67-4.05-1.93-.11-1.24,1.53-2.4,3.66-2.6,2.13-.18,3.94.68,4.05,1.93"></path></g></g></svg>